<svg xmlns="http://www.w3.org/2000/svg" width="18" height="18" fill="none"><circle cx="9" cy="9" r="9" fill="#E9983D"/><path d="M13.14 7.965c.185-1.143-.624-1.672-1.078-1.964-.452-.292-1.143-.502-1.143-.502l.442-1.78-1.02-.256-.442 1.78-.815-.206.442-1.78L8.494 3l-.442 1.78-2.157-.542-.262 1.056s1.065.266 1.182.297c.12.029.104.09.094.13-.01.04-1.34 5.405-1.36 5.476-.016.072-.028.113-.127.09l-1.131-.284L4 12.176l2.088.523-.423 1.702 1.113.279.423-1.703.693.174-.423 1.703 1.06.266.424-1.702.798.2c.53.133 2.544.158 2.982-1.611.439-1.77-1.012-2.519-1.012-2.519s1.23-.38 1.417-1.523Zm-2.417 3.282c-.21.847-1.155.912-1.37.857l-1.895-.474.56-2.262 1.965.492c.377.096.951.54.74 1.387Zm.35-3.445c-.224.902-1.124.861-1.408.791L8.28 8.246l.534-2.153 1.264.316c.216.054 1.22.492.995 1.393Z" fill="#fff"/></svg>