<svg width="36" height="36" viewBox="0 0 36 36" fill="none" xmlns="http://www.w3.org/2000/svg">
<g id="icon/Xverse">
<rect id="Rectangle 34624885" width="36" height="36" rx="8" fill="#12151E"/>
<g id="Group 427323117">
<g id="Group 427323118">
<path id="Vector 1223" d="M29.1797 11.6825L29.5602 6.73683C29.5736 6.56259 29.4358 6.41382 29.261 6.41382H24.337C24.2533 6.41382 24.1734 6.44881 24.1166 6.51034L19.653 11.346C19.4843 11.5288 19.5985 11.8257 19.8463 11.8482L23.5688 12.1866C23.7011 12.1987 23.8098 12.2963 23.8358 12.4266L24.5096 15.7952C24.5566 16.0301 24.8465 16.1179 25.0159 15.9485L29.0927 11.8716C29.1434 11.821 29.1742 11.7539 29.1797 11.6825Z" fill="#EE7A30"/>
<path id="Vector 1222" d="M6 29.7V25.1587C6 25.0792 6.03161 25.0029 6.08787 24.9466L12.4086 18.6259C12.5257 18.5088 12.5257 18.3188 12.4086 18.2017L6.08787 11.881C6.03161 11.8247 6 11.7484 6 11.6688V6.3C6 6.13431 6.13432 6 6.3 6H10.8393C10.92 6 10.9973 6.03254 11.0538 6.09027L29.0869 24.5332C29.1417 24.5893 29.1724 24.6646 29.1724 24.743V29.7C29.1724 29.8657 29.0381 30 28.8724 30H24.343C24.2565 30 24.1742 29.9627 24.1173 29.8976L18.5034 23.4818C18.4465 23.4167 18.3642 23.3793 18.2777 23.3793H17.2967C17.2171 23.3793 17.1408 23.4109 17.0845 23.4672L14.3637 26.188C14.3075 26.2443 14.2759 26.3206 14.2759 26.4001V29.7C14.2759 29.8657 14.1415 30 13.9759 30H6.3C6.13431 30 6 29.8657 6 29.7Z" fill="white"/>
</g>
</g>
</g>
</svg>
