<svg xmlns="http://www.w3.org/2000/svg" width="36" height="36" viewBox="0 0 36 36" fill="none">
<rect width="36" height="36" rx="8" fill="white"/>
<mask id="mask0_6581_54899" style="mask-type:luminance" maskUnits="userSpaceOnUse" x="6" y="3" width="24" height="30">
<path d="M29.2232 3.42969H6V32.5725H29.2232V3.42969Z" fill="white"/>
</mask>
<g mask="url(#mask0_6581_54899)">
<path d="M22.3812 6.0515L28.4614 11.9748C28.9789 12.4779 29.2336 12.987 29.2256 13.5C29.2176 14.013 28.9949 14.4806 28.5597 14.9048C28.1043 15.3488 27.6128 15.5738 27.0873 15.5836C26.5617 15.5915 26.0401 15.3429 25.5226 14.8398L19.3041 8.78228C18.598 8.09369 17.9159 7.60632 17.26 7.32021C16.604 7.03411 15.9139 6.98873 15.1918 7.18604C14.4676 7.38138 13.6913 7.88453 12.8589 8.69349C11.7115 9.81226 11.1638 10.8619 11.22 11.8426C11.2761 12.8232 11.8458 13.8413 12.9271 14.893L19.1958 21.0018C19.7193 21.5108 19.9761 22.0199 19.968 22.525C19.96 23.0321 19.7353 23.4997 19.292 23.9318C18.8507 24.362 18.3633 24.5869 17.8337 24.6047C17.3041 24.6224 16.7765 24.3758 16.255 23.8667L10.1749 17.9434C9.18591 16.9806 8.47178 16.069 8.03247 15.2087C7.59316 14.3484 7.42867 13.3757 7.54301 12.2905C7.64532 11.3612 7.94822 10.4614 8.45373 9.58931C8.95722 8.71717 9.67938 7.82533 10.6162 6.91178C11.7315 5.8246 12.7967 4.99195 13.8117 4.41185C14.8247 3.83176 15.8056 3.51014 16.7524 3.44305C17.7013 3.37597 18.6361 3.56144 19.5608 3.99947C20.4856 4.4375 21.4244 5.1202 22.3792 6.0515H22.3812Z" fill="url(#paint0_linear_6581_54899)"/>
<path d="M12.8426 29.9487L6.76446 24.0254C6.24692 23.5203 5.99216 23.0132 6.00018 22.5002C6.00821 21.9872 6.23087 21.5196 6.66617 21.0954C7.12152 20.6514 7.61299 20.4265 8.13856 20.4166C8.66412 20.4087 9.18568 20.6553 9.70322 21.1605L15.9197 27.2179C16.6279 27.9065 17.3079 28.3939 17.9638 28.68C18.6198 28.9661 19.3099 29.0095 20.034 28.8142C20.7582 28.6189 21.5345 28.1157 22.3669 27.3047C23.5144 26.186 24.062 25.1363 24.0059 24.1557C23.9497 23.175 23.38 22.1569 22.2988 21.1033L18.9588 17.8772C18.4353 17.3682 18.1785 16.8591 18.1865 16.354C18.1945 15.8469 18.4192 15.3793 18.8625 14.9472C19.3038 14.517 19.7913 14.2921 20.3208 14.2743C20.8504 14.2566 21.378 14.5032 21.8996 15.0123L25.049 18.0528C26.0379 19.0157 26.752 19.9273 27.1914 20.7876C27.6306 21.6478 27.7951 22.6206 27.6808 23.7058C27.5785 24.6351 27.2756 25.5349 26.7701 26.407C26.2666 27.2791 25.5444 28.171 24.6076 29.0845C23.4923 30.1717 22.4271 31.0043 21.4121 31.5844C20.3971 32.1645 19.4162 32.4881 18.4674 32.5552C17.5185 32.6223 16.5837 32.4368 15.659 31.9988C14.7342 31.5607 13.7954 30.8781 12.8406 29.9468L12.8426 29.9487Z" fill="url(#paint1_linear_6581_54899)"/>
<path d="M16.635 14.6695C17.8681 14.6695 18.8677 13.6863 18.8677 12.4734C18.8677 11.2606 17.8681 10.2773 16.635 10.2773C15.4019 10.2773 14.4023 11.2606 14.4023 12.4734C14.4023 13.6863 15.4019 14.6695 16.635 14.6695Z" fill="url(#paint2_radial_6581_54899)"/>
</g>
<defs>
<linearGradient id="paint0_linear_6581_54899" x1="27.4613" y1="9.50243" x2="8.72263" y2="17.9688" gradientUnits="userSpaceOnUse">
<stop stop-color="#201C1B"/>
<stop offset="0.36" stop-color="#77390D"/>
<stop offset="0.67" stop-color="#EA8101"/>
<stop offset="1" stop-color="#F4B852"/>
</linearGradient>
<linearGradient id="paint1_linear_6581_54899" x1="8.28323" y1="26.7418" x2="30.0588" y2="20.153" gradientUnits="userSpaceOnUse">
<stop stop-color="#1F1D1C"/>
<stop offset="0.37" stop-color="#77390D"/>
<stop offset="0.67" stop-color="#EA8101"/>
<stop offset="1" stop-color="#F4FB52"/>
</linearGradient>
<radialGradient id="paint2_radial_6581_54899" cx="0" cy="0" r="1" gradientUnits="userSpaceOnUse" gradientTransform="translate(16.635 12.4754) scale(2.23265 2.19607)">
<stop stop-color="#F4B852"/>
<stop offset="0.33" stop-color="#EA8101"/>
<stop offset="0.64" stop-color="#77390D"/>
<stop offset="1" stop-color="#211C1D"/>
</radialGradient>
</defs>
</svg>